<svg xmlns="http://www.w3.org/2000/svg" xmlns:xlink="http://www.w3.org/1999/xlink" viewBox="0 0 529.33 148.47"><defs><style>.cls-1,.cls-3{fill:none;}.cls-2{clip-path:url(#clip-path);}.cls-3{stroke:#000;stroke-opacity:0.25;stroke-width:2.8px;}.cls-4{fill-opacity:0.75;}</style><clipPath id="clip-path" transform="translate(62.2 0.73)"><rect class="cls-1" width="404.92" height="147"/></clipPath></defs><g id="Layer_2" data-name="Layer 2"><g id="Layer_1-2" data-name="Layer 1"><g id="Layer_2-2" data-name="Layer 2"><g id="Layer_1-2-2" data-name="Layer 1-2"><g class="cls-2"><rect class="cls-3" x="1.4" y="1.4" width="121.61" height="66.82" rx="4.68"/><path class="cls-4" d="M18,47.64c-2.8,3-4.57,3.72-5.62,3.69a1.52,1.52,0,0,1-1.3-.57c-.06-.25-.14-4-.17-7.77s0-7.8.19-7.8A54.2,54.2,0,0,1,15.66,29h0a18.5,18.5,0,0,0-9.94,5.56,5,5,0,0,0-2.83-.68H2.5a4.47,4.47,0,0,1,1.91,3.49V50.48S2.31,52.41.65,52.41a2.16,2.16,0,0,1-1.83-1,1.73,1.73,0,0,1-.28-.56V34.66a2.63,2.63,0,0,1-.86.28,1.07,1.07,0,0,1-1-.71,4.28,4.28,0,0,1-.33-1.87c0-3,3.33-5,3.33-5h0c-4.24,1.16-8.15,3.37-13.38,9.44S-18,48-18,48a25.85,25.85,0,0,1,4.9-7.08c1.64-1.73,2.86-2.3,3.69-2.3A1.28,1.28,0,0,1-8,39.78a.49.49,0,0,1,0,.12V52.24a1.29,1.29,0,0,1-1.08,1.47,1.21,1.21,0,0,1-.38,0,3.18,3.18,0,0,1-1.14-.23h0c3.55,5.25,12.08,6,12.08,6l3.74-4.06.08.09,3.44,3C14,55.33,17,49.83,17.8,48.21A1.52,1.52,0,0,0,18,47.64Z" transform="translate(62.2 0.73)"/><rect class="cls-3" x="31.33" y="6.08" width="87" height="9.35" rx="1.17"/><path class="cls-3" d="M-60.8,19.38H60.8" transform="translate(62.2 0.73)"/><rect class="cls-3" x="136.37" y="1.4" width="121.61" height="66.82" rx="4.68"/><path class="cls-4" d="M153,47.64c-2.79,3-4.57,3.72-5.62,3.69a1.52,1.52,0,0,1-1.3-.57c-.06-.25-.14-4-.17-7.77s0-7.8.2-7.8A53.87,53.87,0,0,1,150.63,29h0a18.5,18.5,0,0,0-9.94,5.56,5,5,0,0,0-2.83-.68h-.36a4.48,4.48,0,0,1,1.92,3.49V50.48s-2.11,1.93-3.77,1.93a2.16,2.16,0,0,1-1.83-1,1.73,1.73,0,0,1-.28-.56V34.66a2.63,2.63,0,0,1-.86.28,1.05,1.05,0,0,1-1-.71,4.15,4.15,0,0,1-.34-1.87c0-3,3.33-5,3.33-5h0c-4.24,1.16-8.14,3.37-13.38,9.44S117,48,117,48a25.89,25.89,0,0,1,4.91-7.08c1.63-1.73,2.85-2.3,3.68-2.3A1.31,1.31,0,0,1,127,39.81V52.24a1.3,1.3,0,0,1-1.1,1.47,1.15,1.15,0,0,1-.37,0,3.18,3.18,0,0,1-1.14-.23h0c3.54,5.25,12.07,6,12.07,6l3.74-4.06.09.09,3.43,3c5.29-3.18,8.26-8.68,9.06-10.3.22-.37.3-.54.3-.54Z" transform="translate(62.2 0.73)"/><rect class="cls-3" x="166.31" y="6.08" width="87" height="9.35" rx="1.17"/><circle class="cls-3" cx="143.39" cy="10.75" r="2.34"/><circle class="cls-3" cx="151.81" cy="10.75" r="2.34"/><circle class="cls-3" cx="160.23" cy="10.75" r="2.34"/><path class="cls-3" d="M74.17,19.38H195.78" transform="translate(62.2 0.73)"/><rect class="cls-3" x="271.35" y="1.4" width="121.61" height="66.82" rx="4.68"/><path class="cls-4" d="M288,47.64c-2.8,3-4.57,3.72-5.63,3.69a1.52,1.52,0,0,1-1.3-.57c-.05-.25-.14-4-.17-7.77s0-7.8.2-7.8A54.59,54.59,0,0,1,285.6,29h0a18.53,18.53,0,0,0-10,5.56,5,5,0,0,0-2.82-.68h-.36a4.5,4.5,0,0,1,1.91,3.49V50.48s-2.11,1.93-3.77,1.93a2.16,2.16,0,0,1-1.83-1,1.53,1.53,0,0,1-.27-.56V34.66a2.63,2.63,0,0,1-.86.28,1.07,1.07,0,0,1-1-.71,4.28,4.28,0,0,1-.33-1.87c0-3,3.32-5,3.32-5h0c-4.23,1.16-8.14,3.37-13.38,9.44S252,48,252,48a25.85,25.85,0,0,1,4.9-7.08c1.63-1.73,2.85-2.3,3.68-2.3a1.3,1.3,0,0,1,1.36,1.24V52.24a1.3,1.3,0,0,1-1.1,1.47,1.15,1.15,0,0,1-.37,0,3.12,3.12,0,0,1-1.13-.23h0c3.54,5.25,12.08,6,12.08,6l3.74-4.06.08.09,3.43,3c5.29-3.18,8.26-8.68,9.06-10.3A5.53,5.53,0,0,1,288,47.64Z" transform="translate(62.2 0.73)"/><rect class="cls-3" x="301.28" y="6.08" width="87" height="9.35" rx="1.17"/><circle class="cls-3" cx="278.36" cy="10.75" r="2.34"/><circle class="cls-3" cx="286.78" cy="10.75" r="2.34"/><circle class="cls-3" cx="295.2" cy="10.75" r="2.34"/><path class="cls-3" d="M209.14,19.38H330.75" transform="translate(62.2 0.73)"/><rect class="cls-3" x="406.32" y="1.4" width="121.61" height="66.82" rx="4.68"/><path class="cls-4" d="M423,47.64c-2.8,3-4.57,3.72-5.62,3.69a1.55,1.55,0,0,1-1.31-.57c0-.25-.13-4-.16-7.77s0-7.8.19-7.8A54.42,54.42,0,0,1,420.58,29h0a18.59,18.59,0,0,0-9.95,5.56,5,5,0,0,0-2.82-.68h-.36a4.47,4.47,0,0,1,1.91,3.49V50.48s-2.1,1.93-3.77,1.93a2.16,2.16,0,0,1-1.83-1,1.53,1.53,0,0,1-.27-.56V34.66a2.63,2.63,0,0,1-.86.28,1.07,1.07,0,0,1-1-.71,4.28,4.28,0,0,1-.33-1.87c0-3,3.32-5,3.32-5h0c-4.24,1.16-8.15,3.37-13.38,9.44S387,48,387,48a25.85,25.85,0,0,1,4.9-7.08c1.64-1.73,2.85-2.3,3.69-2.3a1.29,1.29,0,0,1,1.35,1.23V52.24a1.3,1.3,0,0,1-1.1,1.47,1.15,1.15,0,0,1-.37,0,3.35,3.35,0,0,1-1.13-.23h0c3.55,5.25,12.08,6,12.08,6l3.74-4.06.08.09,3.44,3a25.21,25.21,0,0,0,9-10.3,4.74,4.74,0,0,0,.31-.54Z" transform="translate(62.2 0.73)"/><rect class="cls-3" x="436.25" y="6.08" width="87" height="9.35" rx="1.17"/><circle class="cls-3" cx="413.33" cy="10.75" r="2.34"/><circle class="cls-3" cx="421.75" cy="10.75" r="2.34"/><circle class="cls-3" cx="430.17" cy="10.75" r="2.34"/><path class="cls-3" d="M344.11,19.38H465.72" transform="translate(62.2 0.73)"/><rect class="cls-3" x="68.89" y="80.25" width="121.61" height="66.82" rx="4.68"/><path class="cls-4" d="M85.53,126.49c-2.8,3-4.57,3.71-5.63,3.69a1.52,1.52,0,0,1-1.3-.57c0-.26-.14-4-.16-7.77s0-7.8.19-7.8a55,55,0,0,1,4.52-6.21h0a18.5,18.5,0,0,0-10,5.56,5,5,0,0,0-2.82-.68H70a4.47,4.47,0,0,1,1.91,3.48v13.13s-2.11,1.93-3.77,1.93a2.18,2.18,0,0,1-1.83-1,1.5,1.5,0,0,1-.27-.57V113.5a2.63,2.63,0,0,1-.86.28,1.07,1.07,0,0,1-1-.7,4.35,4.35,0,0,1-.33-1.88c0-3,3.32-5,3.32-5h0c-4.23,1.16-8.14,3.38-13.38,9.44s-4.23,11.12-4.23,11.12a25.9,25.9,0,0,1,4.9-7.09c1.63-1.73,2.85-2.3,3.68-2.3a1.29,1.29,0,0,1,1.36,1.22V131a1.3,1.3,0,0,1-1,1.52,1.19,1.19,0,0,1-.46,0,3.12,3.12,0,0,1-1.13-.23h0c3.55,5.25,12.08,6,12.08,6l3.74-4.05.08.08,3.43,3c5.3-3.18,8.26-8.68,9.06-10.29.22-.37.31-.54.31-.54Z" transform="translate(62.2 0.73)"/><rect class="cls-3" x="98.82" y="84.92" width="87" height="9.35" rx="1.17"/><circle class="cls-3" cx="75.9" cy="89.6" r="2.34"/><circle class="cls-3" cx="84.32" cy="89.6" r="2.34"/><circle class="cls-3" cx="92.74" cy="89.6" r="2.34"/><path class="cls-3" d="M6.68,98.22H128.29" transform="translate(62.2 0.73)"/><rect class="cls-3" x="203.86" y="80.25" width="121.61" height="66.82" rx="4.68"/><path class="cls-4" d="M220.5,126.49c-2.8,3-4.57,3.71-5.62,3.69a1.57,1.57,0,0,1-1.31-.57c0-.26-.13-4-.16-7.77s0-7.8.19-7.8a55,55,0,0,1,4.52-6.21h0a18.4,18.4,0,0,0-9.94,5.56,5,5,0,0,0-2.83-.68H205a4.41,4.41,0,0,1,1.91,3.48v13.13s-2.1,1.93-3.77,1.93a2.13,2.13,0,0,1-1.82-1,1.52,1.52,0,0,1-.28-.57V113.5a2.63,2.63,0,0,1-.86.28,1.07,1.07,0,0,1-1-.7,4.35,4.35,0,0,1-.33-1.88c0-3,3.32-5,3.32-5h0c-4.24,1.16-8.15,3.38-13.38,9.44s-4.24,11.12-4.24,11.12a25.9,25.9,0,0,1,4.9-7.09c1.64-1.73,2.86-2.3,3.69-2.3a1.29,1.29,0,0,1,1.35,1.23V131a1.3,1.3,0,0,1-1.09,1.48,1.15,1.15,0,0,1-.37,0,3.18,3.18,0,0,1-1.14-.23h0c3.55,5.25,12.08,6,12.08,6l3.74-4,.08.08,3.44,3c5.29-3.18,8.25-8.68,9.06-10.29.22-.37.3-.54.3-.54Z" transform="translate(62.2 0.73)"/><rect class="cls-3" x="233.79" y="84.92" width="87" height="9.35" rx="1.17"/><circle class="cls-3" cx="210.87" cy="89.6" r="2.34"/><circle class="cls-3" cx="219.29" cy="89.6" r="2.34"/><circle class="cls-3" cx="227.71" cy="89.6" r="2.34"/><path class="cls-3" d="M141.65,98.22H263.26" transform="translate(62.2 0.73)"/><rect class="cls-3" x="338.83" y="80.25" width="121.61" height="66.82" rx="4.68"/><path class="cls-4" d="M355.47,126.49c-2.79,3-4.57,3.71-5.62,3.69a1.52,1.52,0,0,1-1.3-.57c-.06-.26-.14-4-.17-7.77s0-7.8.2-7.8a54.91,54.91,0,0,1,4.51-6.21h0a18.4,18.4,0,0,0-9.94,5.56,5,5,0,0,0-2.83-.68H340a4.41,4.41,0,0,1,1.91,3.48v13.13s-2.1,1.93-3.76,1.93a2.16,2.16,0,0,1-1.83-1,1.69,1.69,0,0,1-.28-.57V113.5a2.63,2.63,0,0,1-.86.28,1.06,1.06,0,0,1-1-.7,4.33,4.33,0,0,1-.34-1.88c0-3,3.33-5,3.33-5h0c-4.24,1.16-8.14,3.38-13.38,9.44s-4.24,11.12-4.24,11.12a25.94,25.94,0,0,1,4.91-7.09c1.63-1.73,2.85-2.3,3.68-2.3a1.3,1.3,0,0,1,1.36,1.24V131a1.3,1.3,0,0,1-1.09,1.48,1.21,1.21,0,0,1-.38,0,3.18,3.18,0,0,1-1.14-.23h0c3.55,5.25,12.08,6,12.08,6l3.74-4,.09.08,3.43,3c5.29-3.18,8.25-8.68,9.06-10.29.22-.37.3-.54.3-.54Z" transform="translate(62.2 0.73)"/><rect class="cls-3" x="368.77" y="84.92" width="87" height="9.35" rx="1.17"/><circle class="cls-3" cx="345.85" cy="89.6" r="2.34"/><circle class="cls-3" cx="354.27" cy="89.6" r="2.34"/><circle class="cls-3" cx="362.69" cy="89.6" r="2.34"/><path class="cls-3" d="M276.63,98.22H398.24" transform="translate(62.2 0.73)"/></g></g></g></g></g></svg>