<svg fill="none" height="120" viewBox="0 0 120 120" width="120" xmlns="http://www.w3.org/2000/svg"><g stroke="#c4f34e" stroke-width="2"><path d="m54.4138 88h55.5862c2.209 0 4-1.7909 4-4v-68c0-2.2091-1.791-4-4-4h-100c-2.20914 0-4 1.7909-4 4v68c0 2.2091 1.79086 4 4 4"/><path d="m54 92h56c4.418 0 8-3.5817 8-8v-68c0-4.4183-3.582-8-8-8h-100c-4.41828 0-8 3.5817-8 8v68c0 4.4183 3.58172 8 8 8"/><circle cx="32" cy="36" r="16"/><path d="m50.6863 59.0002h-32.6863c-4.4183 0-8 3.5818-8 8v33.9998c0 4.419 3.5817 8 8 8h28c4.4183 0 8-3.581 8-8v-18.1713c0-1.7819 2.1543-2.6742 3.4142-1.4143l3.9289 3.929c3.1242 3.1242 8.1896 3.1242 11.3138 0l18.0931-18.0932c2.6234-2.6233 2.6234-6.8766 0-9.5-2.6234-2.6233-6.8766-2.6233-9.5 0l-12.8358 12.8358c-.781.7811-2.0474.7811-2.8284 0l-9.2427-9.2426c-1.5002-1.5003-3.5351-2.3432-5.6568-2.3432z"/><g stroke-linecap="round"><path d="m56 28h42"/><path d="m58 36h40"/><path d="m56 44h42"/></g></g></svg>