<svg fill="none" height="216" viewBox="0 0 559 216" width="559" xmlns="http://www.w3.org/2000/svg"><path d="m163.011 2h-141.7067c-10.6614 0-19.3043 8.6429-19.3043 19.3043v173.3917c0 10.661 8.6429 19.304 19.3044 19.304h141.7066c12.786 0 25.049-5.074 34.098-14.107l68.752-68.64c7.536-7.524 19.742-7.524 27.278 0l68.752 68.64c9.049 9.033 21.312 14.107 34.098 14.107h141.707c10.661 0 19.304-8.643 19.304-19.304v-173.3917c0-10.6614-8.643-19.3043-19.304-19.3043h-141.707c-12.786 0-25.049 5.07376-34.098 14.1073l-68.752 68.6396c-7.536 7.5239-19.742 7.5239-27.278 0l-68.752-68.6396c-9.049-9.03354-21.312-14.1073-34.098-14.1073z" stroke="#c4f34e" stroke-width="4"/><path d="m164.856 14.0454h-141.1384c-5.3307 0-9.6522 4.3214-9.6522 9.6522v168.6044c0 5.331 4.3215 9.652 9.6522 9.652h141.1384c7.736 0 15.151-3.095 20.59-8.596l70.981-71.785c7.437-7.521 7.437-19.625 0-27.1462l-70.981-71.7846c-5.439-5.5011-12.854-8.5968-20.59-8.5968z" stroke="#c4f34e" stroke-width="4"/><path clip-rule="evenodd" d="m109.682 132.882.002 23.299h6.632v-23.298h-6.634zm-52.182-.031v23.33h6.6923v-17.715l5.1845.002c1.7173 0 2.9402.424 3.7678 1.299 1.0497 1.109 1.4776 2.898 1.4776 6.169v10.245h6.484v-12.89c0-9.199-5.9118-10.44-11.6955-10.44zm62.862.032v23.298h10.759c5.733 0 7.603-.946 9.626-3.066 1.431-1.489 2.355-4.756 2.355-8.327 0-3.274-.782-6.196-2.147-8.016-2.458-3.253-5.998-3.889-11.283-3.889zm6.58 5.072h2.852c4.138 0 6.814 1.844 6.814 6.626 0 4.784-2.676 6.627-6.814 6.627h-2.852v-13.252zm-26.824-5.072-5.5363 18.465-5.305-18.464-7.1604-.001 7.5758 23.298h9.5609l7.635-23.298zm46.071 23.298h6.634v-23.296l-6.636-.002zm18.595-23.29-9.263 23.282h6.541l1.466-4.115h10.961l1.387 4.115h7.103l-9.334-23.284-8.861.003zm4.306 4.248 4.018 10.907h-8.163z" fill="#c4f34e" fill-rule="evenodd"/><path clip-rule="evenodd" d="m100.912 78.3075v-5.5972c.555-.039 1.11-.0672 1.665-.0847 15.432-.4811 25.557 13.1537 25.557 13.1537s-10.935 15.0657-22.66 15.0657c-1.689 0-3.199-.269-4.562-.723v-16.9729c6.008.7195 7.216 3.3522 10.829 9.3247l8.033-6.7187s-5.864-7.6294-15.749-7.6294c-1.076 0-2.104.0747-3.113.1818zm0-18.4895v8.3606c.554-.0435 1.108-.0784 1.665-.0983 21.462-.717 35.443 17.4594 35.443 17.4594s-16.06 19.3713-32.791 19.3713c-1.533 0-2.968-.14-4.317-.377v5.168c1.154.145 2.348.231 3.596.231 15.57 0 26.829-7.887 37.733-17.2221 1.806 1.4359 9.207 4.9288 10.729 6.4592-10.367 8.6089-34.527 15.5479-48.223 15.5479-1.281-.005-2.56-.071-3.835-.198v7.263h59.178v-61.9656h-59.177zm0 40.304v4.413c-14.4006-2.548-18.3974-17.3964-18.3974-17.3964s6.9144-7.5994 18.3974-8.8311v4.8416c-.008 0-.015-.0025-.022-.0025-6.0261-.7182-10.7344 4.8671-10.7344 4.8671s2.6377 9.4019 10.7564 12.1083zm-25.5766-13.6275s8.5345-12.4934 25.5766-13.7848v-4.5311c-18.8755 1.5025-35.2216 17.3605-35.2216 17.3605s9.2573 26.5499 35.2226 28.9809v-4.818c-19.0541-2.378-25.5776-23.2075-25.5776-23.2075z" fill="#c4f34e" fill-rule="evenodd"/><g stroke="#c4f34e" stroke-width="4"><path d="m394.144 14.0454h141.138c5.331 0 9.653 4.3214 9.653 9.6522v168.6044c0 5.331-4.322 9.652-9.653 9.652h-141.138c-7.736 0-15.151-3.095-20.59-8.596l-70.981-71.785c-7.437-7.521-7.437-19.625 0-27.1462l70.981-71.7846c5.439-5.5011 12.854-8.5968 20.59-8.5968z"/><rect height="168.636" rx="84.3182" width="168.913" x="356.717" y="23.6816"/><rect height="44.5353" rx="22.2676" width="44.5354" x="418.745" y="85.7319"/><rect height="30.5385" rx="15.2692" width="30.5386" x="425.742" y="92.7305"/><path d="m433.236 87.6188c-4.194-32.6086-19.573-50.1673-17.056-55.7414 2.676-5.9279 7.941-6.1872 15.099-7.525 8.948-1.6722 15.86-.2294 18.734 4.4593 3.076 5.0166 12.024 34.5595 0 59.0857"/><path d="m420.882 99.0763c-26.024-20.0921-49.314-21.6335-51.476-27.3545-2.299-6.084 1.24-9.9903 5.356-15.9977 5.144-7.5094 11.052-11.3766 16.4-10.0938 5.722 1.3726 32.939 15.9355 41.78 41.78"/><path d="m420.653 115.962c-32.608 4.194-50.167 19.573-55.741 17.056-5.928-2.676-6.188-7.941-7.525-15.099-1.673-8.947-.23-15.859 4.459-18.7338 5.017-3.0755 34.56-12.0233 59.086 0"/><path d="m432.106 128.151c-20.092 26.023-21.634 49.313-27.355 51.475-6.084 2.3-9.99-1.24-15.998-5.355-7.509-5.145-11.376-11.053-10.093-16.401 1.372-5.722 15.935-32.939 41.78-41.779"/><path d="m448.825 128.381c4.194 32.609 19.573 50.167 17.057 55.742-2.677 5.927-7.942 6.187-15.1 7.525-8.947 1.672-15.859.229-18.734-4.46-3.075-5.016-12.023-34.559 0-59.085"/><path d="m461.183 116.925c26.023 20.092 49.314 21.634 51.476 27.355 2.299 6.084-1.241 9.99-5.356 15.997-5.145 7.51-11.052 11.377-16.4 10.094-5.722-1.372-32.94-15.935-41.78-41.78"/><path d="m461.692 100.37c32.608-4.1941 50.167-19.5729 55.741-17.0564 5.928 2.6763 6.187 7.9412 7.525 15.0993 1.672 8.9471.23 15.8591-4.459 18.7341-5.017 3.075-34.56 12.023-59.086 0"/><path d="m449.958 87.8499c20.092-26.0234 21.633-49.3138 27.354-51.4758 6.084-2.2992 9.991 1.2403 15.998 5.3558 7.51 5.1445 11.377 11.0522 10.094 16.4001-1.373 5.722-15.936 32.9391-41.78 41.78"/><path d="m184.185 209.182h190.63"/><path d="m184.185 6.81836h190.63"/></g></svg>