<svg width="18" height="20" viewBox="0 0 18 20" fill="none" xmlns="http://www.w3.org/2000/svg">
<path d="M4 10C4 9.44771 4.44772 9 5 9C5.55228 9 6 9.44771 6 10C6 10.5523 5.55228 11 5 11C4.44772 11 4 10.5523 4 10ZM18 4V18C18 19.1 17.1 20 16 20H2C0.89 20 0 19.1 0 18L0.00999999 4C0.00999999 2.9 0.89 2 2 2H3V1C3 0.447715 3.44772 0 4 0C4.55228 0 5 0.447715 5 1V2H13V1C13 0.447715 13.4477 0 14 0C14.5523 0 15 0.447715 15 1V2H16C17.1 2 18 2.9 18 4ZM2 6H16V4H2V6ZM16 18V8H2V18H16ZM12 10C12 10.5523 12.4477 11 13 11C13.5523 11 14 10.5523 14 10C14 9.44771 13.5523 9 13 9C12.4477 9 12 9.44771 12 10ZM8 10C8 10.5523 8.44771 11 9 11C9.55229 11 10 10.5523 10 10C10 9.44771 9.55229 9 9 9C8.44771 9 8 9.44771 8 10Z" fill="#616161"/>
</svg>
