<svg width="25" height="25" viewBox="0 0 25 25" fill="none" xmlns="http://www.w3.org/2000/svg">
<g clip-path="url(#clip0_1814_1414)">
<g opacity="0.65">
<path d="M1 12.5L0.12892 12.0089L-0.148 12.5L0.12892 12.9911L1 12.5ZM24 12.5L24.8711 12.9911L25.148 12.5L24.8711 12.0089L24 12.5ZM1 12.5C1.87108 12.9911 1.87092 12.9914 1.87077 12.9917C1.87075 12.9917 1.87062 12.992 1.87056 12.9921C1.87046 12.9922 1.87041 12.9923 1.87043 12.9923C1.87047 12.9922 1.87076 12.9917 1.8713 12.9908C1.87239 12.9889 1.87448 12.9852 1.87758 12.9799C1.88379 12.9692 1.89401 12.9517 1.90822 12.9278C1.93663 12.8802 1.98093 12.8072 2.04082 12.7126C2.16067 12.5233 2.34248 12.248 2.5838 11.9153C3.0676 11.2484 3.78432 10.3597 4.71342 9.47367C6.5839 7.68985 9.22377 6 12.5 6V4C8.50495 4 5.39482 6.06015 3.33313 8.02633C2.29613 9.01528 1.50122 10.0016 0.964901 10.7409C0.696165 11.1114 0.4908 11.422 0.350989 11.6428C0.281046 11.7533 0.227396 11.8415 0.190316 11.9037C0.171773 11.9348 0.157363 11.9594 0.147121 11.9771C0.142 11.9859 0.13792 11.9931 0.134885 11.9984C0.133368 12.001 0.132112 12.0032 0.131117 12.005C0.13062 12.0059 0.130189 12.0066 0.129822 12.0073C0.129639 12.0076 0.129413 12.008 0.129322 12.0081C0.129113 12.0085 0.12892 12.0089 1 12.5ZM12.5 6C15.7762 6 18.4161 7.68985 20.2866 9.47367C21.2157 10.3597 21.9324 11.2484 22.4162 11.9153C22.6575 12.248 22.8393 12.5233 22.9592 12.7126C23.0191 12.8072 23.0634 12.8802 23.0918 12.9278C23.106 12.9517 23.1162 12.9692 23.1224 12.9799C23.1255 12.9852 23.1276 12.9889 23.1287 12.9908C23.1292 12.9917 23.1295 12.9922 23.1296 12.9923C23.1296 12.9923 23.1295 12.9922 23.1294 12.9921C23.1294 12.992 23.1293 12.9917 23.1292 12.9917C23.1291 12.9914 23.1289 12.9911 24 12.5C24.8711 12.0089 24.8709 12.0085 24.8707 12.0081C24.8706 12.008 24.8704 12.0076 24.8702 12.0073C24.8698 12.0066 24.8694 12.0059 24.8689 12.005C24.8679 12.0032 24.8666 12.001 24.8651 11.9984C24.8621 11.9931 24.858 11.9859 24.8529 11.9771C24.8426 11.9594 24.8282 11.9348 24.8097 11.9037C24.7726 11.8415 24.719 11.7533 24.649 11.6428C24.5092 11.422 24.3038 11.1114 24.0351 10.7409C23.4988 10.0016 22.7039 9.01528 21.6669 8.02633C19.6052 6.06015 16.495 4 12.5 4V6ZM24 12.5C23.1289 12.0089 23.1291 12.0086 23.1292 12.0083C23.1293 12.0083 23.1294 12.008 23.1294 12.0079C23.1295 12.0078 23.1296 12.0077 23.1296 12.0077C23.1295 12.0078 23.1292 12.0083 23.1287 12.0092C23.1276 12.0111 23.1255 12.0148 23.1224 12.0201C23.1162 12.0308 23.106 12.0483 23.0918 12.0722C23.0634 12.1198 23.0191 12.1928 22.9592 12.2874C22.8393 12.4767 22.6575 12.752 22.4162 13.0847C21.9324 13.7516 21.2157 14.6403 20.2866 15.5263C18.4161 17.3102 15.7762 19 12.5 19V21C16.495 21 19.6052 18.9398 21.6669 16.9737C22.7039 15.9847 23.4988 14.9984 24.0351 14.2591C24.3038 13.8886 24.5092 13.578 24.649 13.3572C24.719 13.2467 24.7726 13.1585 24.8097 13.0963C24.8282 13.0652 24.8426 13.0406 24.8529 13.0229C24.858 13.0141 24.8621 13.0069 24.8651 13.0016C24.8666 12.999 24.8679 12.9968 24.8689 12.995C24.8694 12.9941 24.8698 12.9934 24.8702 12.9927C24.8704 12.9924 24.8706 12.992 24.8707 12.9919C24.8709 12.9915 24.8711 12.9911 24 12.5ZM12.5 19C9.22377 19 6.5839 17.3102 4.71342 15.5263C3.78432 14.6403 3.0676 13.7516 2.5838 13.0847C2.34248 12.752 2.16067 12.4767 2.04082 12.2874C1.98093 12.1928 1.93663 12.1198 1.90822 12.0722C1.89401 12.0483 1.88379 12.0308 1.87758 12.0201C1.87448 12.0148 1.87239 12.0111 1.8713 12.0092C1.87076 12.0083 1.87047 12.0078 1.87043 12.0077C1.87041 12.0077 1.87046 12.0078 1.87056 12.0079C1.87062 12.008 1.87075 12.0083 1.87077 12.0083C1.87092 12.0086 1.87108 12.0089 1 12.5C0.12892 12.9911 0.129113 12.9915 0.129322 12.9919C0.129413 12.992 0.129639 12.9924 0.129822 12.9927C0.130189 12.9934 0.13062 12.9941 0.131117 12.995C0.132112 12.9968 0.133368 12.999 0.134885 13.0016C0.13792 13.0069 0.142 13.0141 0.147121 13.0229C0.157363 13.0406 0.171773 13.0652 0.190316 13.0963C0.227396 13.1585 0.281046 13.2467 0.350989 13.3572C0.4908 13.578 0.696165 13.8886 0.964901 14.2591C1.50122 14.9984 2.29613 15.9847 3.33313 16.9737C5.39482 18.9398 8.50495 21 12.5 21V19Z" fill="#616161"/>
<circle cx="12.5" cy="12.5" r="4.5" stroke="#616161" stroke-width="2"/>
</g>
</g>
<defs>
<clipPath id="clip0_1814_1414">
<rect width="25" height="25" fill="white"/>
</clipPath>
</defs>
</svg>
