<svg fill="none" height="220" viewBox="0 0 606 220" width="606" xmlns="http://www.w3.org/2000/svg" xmlns:xlink="http://www.w3.org/1999/xlink"><clipPath id="a"><path d="m0 0h606v220h-606z"/></clipPath><g clip-path="url(#a)"><rect height="100" rx="7" stroke="#000" stroke-opacity=".25" stroke-width="2.8" width="182" x="-91" y="1"/><path d="m27 71.3024c-4.1871 4.4987-6.8403 5.5597-8.4156 5.5172-1.4095 0-1.9485-.8488-1.9485-.8488-.0829-.3819-.2073-6.0265-.2487-11.6286-.0415-5.8143 0-11.6711.2902-11.6711 1.6168-3.0982 6.7574-9.2944 6.7574-9.2944s0 0-.0415 0c-9.3277 1.8673-14.55116 7.9363-14.88281 8.3183-1.16078-.9337-3.27505-1.0186-4.22854-1.0186-.33165 0-.53894 0-.53894 0 1.49243.8488 2.86049 3.2255 2.86049 5.2202v19.6498s-3.15068 2.886-5.638057 2.886c-1.45097 0-2.238633-.8064-2.736113-1.4854-.33165-.4669-.41456-.8489-.41456-.8489v-24.2334c-.58039.2122-.82913.4244-1.28515.4244-.53893 0-1.11932-.2546-1.49243-1.061-.29019-.5941-.49748-1.4854-.49748-2.801 0-4.4987 4.974761-7.4271 4.974761-7.4271s.000004 0-.041452 0c-6.342809 1.7401-12.188119 5.0504-20.023419 14.1326-7.7938 9.0823-6.3428 16.6366-6.3428 16.6366s2.1557-5.1777 7.3378-10.61c2.4459-2.5889 4.27-3.4377 5.5137-3.4377 1.4095 0 2.0313 1.061 2.0313 1.9947v18.4615c0 1.825-1.1193 2.2069-2.1972 2.2069-.912 0-1.6997-.3395-1.6997-.3395h-.0414c5.3064 7.8515 18.07492 8.9549 18.07492 8.9549l5.5966-6.069.12437.1274 5.14061 4.4562c7.9181-4.7533 12.3539-12.9867 13.5562-15.4058.3316-.5518.456-.8064.456-.8064z" fill="#000" fill-opacity=".75"/><rect height="14" rx="1.75" stroke="#000" stroke-opacity=".25" stroke-width="2.8" width="130.2" x="-46.2002" y="8"/><path d="m-91 29h182" stroke="#000" stroke-opacity=".25" stroke-width="2.8"/><rect height="100" rx="7" stroke="#000" stroke-opacity=".25" stroke-width="2.8" width="182" x="111" y="1"/><path d="m229 71.3024c-4.187 4.4987-6.84 5.5597-8.416 5.5172-1.409 0-1.948-.8488-1.948-.8488-.083-.3819-.207-6.0265-.249-11.6286-.041-5.8143 0-11.6711.29-11.6711 1.617-3.0982 6.758-9.2944 6.758-9.2944s0 0-.042 0c-9.327 1.8673-14.551 7.9363-14.883 8.3183-1.16-.9337-3.275-1.0186-4.228-1.0186-.332 0-.539 0-.539 0 1.492.8488 2.861 3.2255 2.861 5.2202v19.6498s-3.151 2.886-5.639 2.886c-1.451 0-2.238-.8064-2.736-1.4854-.331-.4669-.414-.8489-.414-.8489v-24.2334c-.581.2122-.829.4244-1.285.4244-.539 0-1.12-.2546-1.493-1.061-.29-.5941-.497-1.4854-.497-2.801 0-4.4987 4.974-7.4271 4.974-7.4271s0 0-.041 0c-6.343 1.7401-12.188 5.0504-20.023 14.1326-7.794 9.0823-6.343 16.6366-6.343 16.6366s2.156-5.1777 7.338-10.61c2.445-2.5889 4.27-3.4377 5.513-3.4377 1.41 0 2.032 1.061 2.032 1.9947v18.4615c0 1.825-1.12 2.2069-2.198 2.2069-.912 0-1.699-.3395-1.699-.3395h-.042c5.307 7.8515 18.075 8.9549 18.075 8.9549l5.597-6.069.124.1274 5.141 4.4562c7.918-4.7533 12.354-12.9867 13.556-15.4058.332-.5518.456-.8064.456-.8064z" fill="#000" fill-opacity=".75"/><g stroke="#000" stroke-opacity=".25" stroke-width="2.8"><rect height="14" rx="1.75" width="130.2" x="155.8" y="8"/><circle cx="121.5" cy="15" r="3.5"/><circle cx="134.101" cy="15" r="3.5"/><circle cx="146.7" cy="15" r="3.5"/><path d="m111 29h182"/><rect height="100" rx="7" width="182" x="313" y="1"/></g><path d="m431 71.3024c-4.187 4.4987-6.84 5.5597-8.416 5.5172-1.409 0-1.948-.8488-1.948-.8488-.083-.3819-.207-6.0265-.249-11.6286-.041-5.8143 0-11.6711.29-11.6711 1.617-3.0982 6.758-9.2944 6.758-9.2944s0 0-.042 0c-9.327 1.8673-14.551 7.9363-14.883 8.3183-1.16-.9337-3.275-1.0186-4.228-1.0186-.332 0-.539 0-.539 0 1.492.8488 2.861 3.2255 2.861 5.2202v19.6498s-3.151 2.886-5.639 2.886c-1.451 0-2.238-.8064-2.736-1.4854-.331-.4669-.414-.8489-.414-.8489v-24.2334c-.581.2122-.829.4244-1.285.4244-.539 0-1.12-.2546-1.493-1.061-.29-.5941-.497-1.4854-.497-2.801 0-4.4987 4.974-7.4271 4.974-7.4271s0 0-.041 0c-6.343 1.7401-12.188 5.0504-20.023 14.1326-7.794 9.0823-6.343 16.6366-6.343 16.6366s2.156-5.1777 7.338-10.61c2.445-2.5889 4.27-3.4377 5.513-3.4377 1.41 0 2.032 1.061 2.032 1.9947v18.4615c0 1.825-1.12 2.2069-2.198 2.2069-.912 0-1.699-.3395-1.699-.3395h-.042c5.307 7.8515 18.075 8.9549 18.075 8.9549l5.597-6.069.124.1274 5.141 4.4562c7.918-4.7533 12.354-12.9867 13.556-15.4058.332-.5518.456-.8064.456-.8064z" fill="#000" fill-opacity=".75"/><rect height="14" rx="1.75" stroke="#000" stroke-opacity=".25" stroke-width="2.8" width="130.2" x="357.8" y="8"/><circle cx="323.5" cy="15" r="3.5" stroke="#000" stroke-opacity=".25" stroke-width="2.8"/><circle cx="336.101" cy="15" r="3.5" stroke="#000" stroke-opacity=".25" stroke-width="2.8"/><circle cx="348.7" cy="15" r="3.5" stroke="#000" stroke-opacity=".25" stroke-width="2.8"/><path d="m313 29h182" stroke="#000" stroke-opacity=".25" stroke-width="2.8"/><rect height="100" rx="7" stroke="#000" stroke-opacity=".25" stroke-width="2.8" width="182" x="515" y="1"/><path d="m633 71.3024c-4.187 4.4987-6.84 5.5597-8.416 5.5172-1.409 0-1.948-.8488-1.948-.8488-.083-.3819-.207-6.0265-.249-11.6286-.041-5.8143 0-11.6711.29-11.6711 1.617-3.0982 6.758-9.2944 6.758-9.2944s0 0-.042 0c-9.327 1.8673-14.551 7.9363-14.883 8.3183-1.16-.9337-3.275-1.0186-4.228-1.0186-.332 0-.539 0-.539 0 1.492.8488 2.861 3.2255 2.861 5.2202v19.6498s-3.151 2.886-5.639 2.886c-1.451 0-2.238-.8064-2.736-1.4854-.331-.4669-.414-.8489-.414-.8489v-24.2334c-.581.2122-.829.4244-1.285.4244-.539 0-1.12-.2546-1.493-1.061-.29-.5941-.497-1.4854-.497-2.801 0-4.4987 4.974-7.4271 4.974-7.4271s0 0-.041 0c-6.343 1.7401-12.188 5.0504-20.023 14.1326-7.794 9.0823-6.343 16.6366-6.343 16.6366s2.156-5.1777 7.338-10.61c2.445-2.5889 4.27-3.4377 5.513-3.4377 1.41 0 2.032 1.061 2.032 1.9947v18.4615c0 1.825-1.12 2.2069-2.198 2.2069-.912 0-1.699-.3395-1.699-.3395h-.042c5.307 7.8515 18.075 8.9549 18.075 8.9549l5.597-6.069.124.1274 5.141 4.4562c7.918-4.7533 12.354-12.9867 13.556-15.4058.332-.5518.456-.8064.456-.8064z" fill="#000" fill-opacity=".75"/><rect height="14" rx="1.75" stroke="#000" stroke-opacity=".25" stroke-width="2.8" width="130.2" x="559.8" y="8"/><circle cx="525.5" cy="15" r="3.5" stroke="#000" stroke-opacity=".25" stroke-width="2.8"/><circle cx="538.101" cy="15" r="3.5" stroke="#000" stroke-opacity=".25" stroke-width="2.8"/><circle cx="550.7" cy="15" r="3.5" stroke="#000" stroke-opacity=".25" stroke-width="2.8"/><path d="m515 29h182" stroke="#000" stroke-opacity=".25" stroke-width="2.8"/><rect height="100" rx="7" stroke="#000" stroke-opacity=".25" stroke-width="2.8" width="182" x="10" y="119"/><path d="m128 189.302c-4.187 4.499-6.84 5.56-8.416 5.518-1.409 0-1.948-.849-1.948-.849-.083-.382-.207-6.027-.249-11.629-.041-5.814 0-11.671.29-11.671 1.617-3.098 6.758-9.294 6.758-9.294s0 0-.042 0c-9.327 1.867-14.551 7.936-14.883 8.318-1.16-.934-3.275-1.019-4.228-1.019-.332 0-.539 0-.539 0 1.492.849 2.861 3.226 2.861 5.221v19.649s-3.151 2.886-5.639 2.886c-1.451 0-2.2382-.806-2.7357-1.485-.3316-.467-.4145-.849-.4145-.849v-24.233c-.5804.212-.8292.424-1.2852.424-.5389 0-1.1193-.255-1.4924-1.061-.2902-.594-.4975-1.485-.4975-2.801 0-4.499 4.9743-7.427 4.9743-7.427s0 0-.041 0c-6.3428 1.74-12.1881 5.05-20.0234 14.133-7.7938 9.082-6.3428 16.636-6.3428 16.636s2.1557-5.177 7.3378-10.61c2.4459-2.589 4.27-3.438 5.5137-3.438 1.4095 0 2.0313 1.061 2.0313 1.995v18.462c0 1.825-1.1193 2.207-2.1972 2.207-.912 0-1.6997-.34-1.6997-.34h-.0414c5.3064 7.852 18.0747 8.955 18.0747 8.955l5.597-6.069.124.127 5.141 4.457c7.918-4.754 12.354-12.987 13.556-15.406.332-.552.456-.807.456-.807z" fill="#000" fill-opacity=".75"/><rect height="14" rx="1.75" stroke="#000" stroke-opacity=".25" stroke-width="2.8" width="130.2" x="54.7998" y="126"/><circle cx="20.5" cy="133" r="3.5" stroke="#000" stroke-opacity=".25" stroke-width="2.8"/><circle cx="33.1006" cy="133" r="3.5" stroke="#000" stroke-opacity=".25" stroke-width="2.8"/><circle cx="45.7002" cy="133" r="3.5" stroke="#000" stroke-opacity=".25" stroke-width="2.8"/><path d="m10 147h182" stroke="#000" stroke-opacity=".25" stroke-width="2.8"/><rect height="100" rx="7" stroke="#000" stroke-opacity=".25" stroke-width="2.8" width="182" x="212" y="119"/><path d="m330 189.302c-4.187 4.499-6.84 5.56-8.416 5.518-1.409 0-1.948-.849-1.948-.849-.083-.382-.207-6.027-.249-11.629-.041-5.814 0-11.671.29-11.671 1.617-3.098 6.758-9.294 6.758-9.294s0 0-.042 0c-9.327 1.867-14.551 7.936-14.883 8.318-1.16-.934-3.275-1.019-4.228-1.019-.332 0-.539 0-.539 0 1.492.849 2.861 3.226 2.861 5.221v19.649s-3.151 2.886-5.639 2.886c-1.451 0-2.238-.806-2.736-1.485-.331-.467-.414-.849-.414-.849v-24.233c-.581.212-.829.424-1.285.424-.539 0-1.12-.255-1.493-1.061-.29-.594-.497-1.485-.497-2.801 0-4.499 4.974-7.427 4.974-7.427s0 0-.041 0c-6.343 1.74-12.188 5.05-20.023 14.133-7.794 9.082-6.343 16.636-6.343 16.636s2.156-5.177 7.338-10.61c2.445-2.589 4.27-3.438 5.513-3.438 1.41 0 2.032 1.061 2.032 1.995v18.462c0 1.825-1.12 2.207-2.198 2.207-.912 0-1.699-.34-1.699-.34h-.042c5.307 7.852 18.075 8.955 18.075 8.955l5.597-6.069.124.127 5.141 4.457c7.918-4.754 12.354-12.987 13.556-15.406.332-.552.456-.807.456-.807z" fill="#000" fill-opacity=".75"/><rect height="14" rx="1.75" stroke="#000" stroke-opacity=".25" stroke-width="2.8" width="130.2" x="256.8" y="126"/><circle cx="222.5" cy="133" r="3.5" stroke="#000" stroke-opacity=".25" stroke-width="2.8"/><circle cx="235.101" cy="133" r="3.5" stroke="#000" stroke-opacity=".25" stroke-width="2.8"/><circle cx="247.7" cy="133" r="3.5" stroke="#000" stroke-opacity=".25" stroke-width="2.8"/><path d="m212 147h182" stroke="#000" stroke-opacity=".25" stroke-width="2.8"/><rect height="100" rx="7" stroke="#000" stroke-opacity=".25" stroke-width="2.8" width="182" x="414" y="119"/><path d="m532 189.302c-4.187 4.499-6.84 5.56-8.416 5.518-1.409 0-1.948-.849-1.948-.849-.083-.382-.207-6.027-.249-11.629-.041-5.814 0-11.671.29-11.671 1.617-3.098 6.758-9.294 6.758-9.294s0 0-.042 0c-9.327 1.867-14.551 7.936-14.883 8.318-1.16-.934-3.275-1.019-4.228-1.019-.332 0-.539 0-.539 0 1.492.849 2.861 3.226 2.861 5.221v19.649s-3.151 2.886-5.639 2.886c-1.451 0-2.238-.806-2.736-1.485-.331-.467-.414-.849-.414-.849v-24.233c-.581.212-.829.424-1.285.424-.539 0-1.12-.255-1.493-1.061-.29-.594-.497-1.485-.497-2.801 0-4.499 4.974-7.427 4.974-7.427s0 0-.041 0c-6.343 1.74-12.188 5.05-20.023 14.133-7.794 9.082-6.343 16.636-6.343 16.636s2.156-5.177 7.338-10.61c2.445-2.589 4.27-3.438 5.513-3.438 1.41 0 2.032 1.061 2.032 1.995v18.462c0 1.825-1.12 2.207-2.198 2.207-.912 0-1.699-.34-1.699-.34h-.042c5.307 7.852 18.075 8.955 18.075 8.955l5.597-6.069.124.127 5.141 4.457c7.918-4.754 12.354-12.987 13.556-15.406.332-.552.456-.807.456-.807z" fill="#000" fill-opacity=".75"/><rect height="14" rx="1.75" stroke="#000" stroke-opacity=".25" stroke-width="2.8" width="130.2" x="458.8" y="126"/><circle cx="424.5" cy="133" r="3.5" stroke="#000" stroke-opacity=".25" stroke-width="2.8"/><circle cx="437.101" cy="133" r="3.5" stroke="#000" stroke-opacity=".25" stroke-width="2.8"/><circle cx="449.7" cy="133" r="3.5" stroke="#000" stroke-opacity=".25" stroke-width="2.8"/><path d="m414 147h182" stroke="#000" stroke-opacity=".25" stroke-width="2.8"/></g></svg>