<svg fill="none" height="120" viewBox="0 0 120 120" width="120" xmlns="http://www.w3.org/2000/svg" xmlns:xlink="http://www.w3.org/1999/xlink"><clipPath id="a"><path d="m0 0h120v120h-120z"/></clipPath><g clip-path="url(#a)" stroke="#c4f34e" stroke-width="2"><circle cx="46.3961" cy="67.0182" r="43.5846"/><circle cx="46.3967" cy="67.0183" r="26.7131"/><circle cx="46.3964" cy="67.0184" r="9.84168"/><g stroke-linecap="round"><path d="m0 67.1587h36.5548"/><path d="m56.2383 67.1587h36.5548"/><path d="m46.3965 113.415v-36.5553"/><path d="m46.3965 57.1763v-36.5548"/><path d="m92.0899 18.6538-45.9747 48.646 60.5968-27.6973" stroke-linejoin="round"/><path d="m93.4183 18.5644 8.3837-1.9346c.942-.2174 1.057-1.5126.169-1.8935l-3.7791-1.6195c-.236-.1011-.4241-.2892-.5252-.5252l-1.6195-3.77876c-.3809-.88882-1.6761-.77318-1.8935.16906l-1.9346 8.3833c-.1662.7201.4791 1.3654 1.1992 1.1992z"/><path d="m108.4 39.7465 8.557.9002c.961.1011 1.492-1.0858.776-1.7354l-3.046-2.7615c-.19-.1724-.307-.4115-.325-.6676l-.301-4.1001c-.071-.9644-1.333-1.2767-1.846-.4566l-4.558 7.2967c-.392.6267.008 1.447.743 1.5243z"/></g></g></svg>