<svg fill="none" height="120" viewBox="0 0 120 120" width="120" xmlns="http://www.w3.org/2000/svg"><g fill="#c4f34e"><path d="m116.99 11h-113.98109c-1.66165 0-3.00891 1.3475-3.00891 3.0096v64.9315c0 1.662 1.34723 3.0096 3.00891 3.0096h38.78219v15.0095h-6.0178c-1.6616 0-3.0089 1.3475-3.0089 3.0095v5.5203c0 1.662 1.3472 3.01 3.0089 3.01h48.4534c1.6617 0 3.0089-1.348 3.0089-3.01v-5.5203c0-1.662-1.3472-3.0095-3.0089-3.0095h-6.0178v-15.0095h38.7821c1.662 0 3.009-1.3476 3.009-3.0096v-64.9315c-.019-1.6611-1.366-3.0096-3.009-3.0096zm1.144 3.0096v51.2499l-95.1897.0009v-52.4136h94.0257c.646 0 1.164.5165 1.164 1.1626zm-97.0361 23.7981h-19.25211v-7.3114h19.25211zm0 1.846v7.3114h-19.25211v-7.3114zm0 9.1392v7.3114h-19.25211v-7.3114zm0-20.1424h-19.25211v-7.3114h19.25211zm-19.25211 29.3003h19.25211v7.3115h-19.25211zm1.16334-45.1044h18.10767v6.6462h-19.27113v-5.5017c0-.628.51736-1.1446 1.16334-1.1446zm82.35977 87.1056v5.521c0 .646-.5164 1.162-1.1624 1.162h-48.4338c-.646 0-1.1624-.516-1.1624-1.162v-5.521c0-.6461.5164-1.1626 1.1624-1.1626h48.4533c.627 0 1.1443.5165 1.1443 1.1626zm-9.0267-3.0086h-32.7064v-15.0095h32.7088zm40.6458-16.8385h-113.98082c-.64598 0-1.16239-.5165-1.16239-1.1626v-11.8343h116.28821v11.8343c-.001.6461-.518 1.1626-1.145 1.1626z"/><path d="m105.563 72.6828h-16.1144c-.425-2.1785-2.3439-3.8215-4.6515-3.8215-2.2886 0-4.1904 1.643-4.6143 3.8215h-65.7664c-.5164 0-.9232.406-.9232.9235 0 .5165.4059.9234.9232.9234h65.7664c.4249 2.1605 2.3438 3.7844 4.6143 3.7844 2.2886 0 4.2085-1.6248 4.6515-3.7844h16.1144c.516 0 .923-.4059.923-.9234 0-.4984-.407-.9235-.923-.9235zm-20.7661 3.8034c-1.5873 0-2.8611-1.2922-2.8611-2.8617 0-1.5877 1.292-2.899 2.8611-2.899 1.5873 0 2.8984 1.2922 2.8984 2.899 0 1.5696-1.292 2.8617-2.8984 2.8617z"/><path d="m89.0624 45.8396c.0181-.2401.0372-.4803.0372-.7385 0-4.6344-3.5997-8.4188-8.1216-8.6769-.9966-4.8555-5.2603-8.4008-10.2444-8.4008s-9.2658 3.5632-10.2624 8.4008c-4.5219.2582-8.1216 4.0435-8.1216 8.6769 0 .2582.0181.4984.0372.7385-2.7689 1.1627-4.6514 3.932-4.6514 7.016 0 4.1913 3.3777 7.5878 7.5308 7.5878.5164 0 .9232-.406.9232-.9235 0-.5165-.4059-.9234-.9232-.9234-3.1375 0-5.6854-2.5846-5.6854-5.7418 0-2.5291 1.6798-4.8002 4.079-5.5016.4611-.1296.7384-.5909.6459-1.0521-.0733-.3507-.1105-.7567-.1105-1.1817 0-3.7664 3.027-6.8311 6.922-6.8311.2401.0372.4984-.0372.6832-.1849s.3135-.3688.3506-.6089c.5536-4.339 4.2265-7.6069 8.5645-7.6069 4.319 0 7.9921 3.2679 8.5465 7.6069.0372.2401.2401.4612.4431.6089.2029.1477.5354.2211.7755.1849 3.7283 0 6.7562 3.0647 6.7562 6.8491 0 .425-.0372.831-.1105 1.1817-.0924.4613.1848.9235.646 1.0521 2.3991.7205 4.0789 2.9725 4.0789 5.5017 0 3.1572-2.5467 5.7417-5.6854 5.7417-.5164 0-.9232.406-.9232.9235 0 .5165.4059.9235.9232.9235 4.1532 0 7.5309-3.3975 7.5309-7.5879-.001-3.083-1.8656-5.8703-4.6344-7.034z"/><path d="m68.6326 35.4998c-2.6946-.2211-5.1681 1.8831-5.7225 4.8554v.0553l-.0553-.0181c-2.4181-.1849-4.5409 1.8278-4.7438 4.5048-.0372.5165.3325.9597.8489.9968h.0734c.4802 0 .8861-.3688.9232-.8491.1296-1.662 1.3663-2.9351 2.6392-2.8246l.8489.1849c.2401.0552.4983 0 .7013-.1296.2029-.1297.3506-.3508.4059-.5909l.1848-.9787c.3878-2.0489 2.0123-3.508 3.7655-3.3602.5164.0372.9595-.3326.9966-.8491.0191-.5165-.3496-.9597-.866-.9968z"/><path d="m85.9061 56.9719c2.1228-1.662 2.5287-4.8737.9414-7.459l-.5355-.8491c-.2772-.425-.8308-.5727-1.2739-.2954-.4249.2773-.5726.831-.2953 1.2742l.5164.8491c1.1071 1.7725.8861 3.932-.4983 5.0213-.4059.3135-.4802.8863-.1658 1.2922.1848.2402.4611.3507.7203.3507.221.001.424-.0543.5907-.1839z"/><path d="m70.7133 25.181c.5164 0 .9233-.406.9233-.9235v-4.357c0-.5165-.4059-.9234-.9233-.9234-.5164 0-.9233.4059-.9233.9234v4.357c0 .5175.4059.9235.9233.9235z"/><path d="m70.7133 18.4587c.5164 0 .9233-.406.9233-.9234v-1.9756c0-.5165-.4059-.9235-.9233-.9235-.5164 0-.9233.406-.9233.9235v1.9756c0 .4984.4059.9234.9233.9234z"/><path d="m52.5686 27.857 3.046 3.083c.1849.1849.425.2773.6641.2773.2401 0 .4612-.0925.646-.2583.3687-.3507.3687-.9415 0-1.3103l-3.046-3.083c-.3506-.3688-.9413-.3688-1.3101 0-.3506.3497-.3506.9215 0 1.2913z"/><path d="m50.91 26.1746c.1848.1849.4249.2773.6641.2773.2401 0 .4611-.0924.646-.2582.3687-.3506.3687-.9414 0-1.3101l-1.3845-1.3844c-.3506-.3687-.9413-.3687-1.31 0-.3688.3506-.3688.9414 0 1.3101z"/><path d="m44.0785 45.783h4.6515c.5164 0 .9232-.4059.9232-.9232 0-.5164-.4059-.9233-.9232-.9233h-4.6515c-.5164 0-.9232.4059-.9232.9233.0009.5173.4068.9232.9232.9232z"/><path d="m39.4633 45.783h2.1047c.5164 0 .9233-.4059.9233-.9232 0-.5164-.4059-.9233-.9233-.9233h-2.1047c-.5164 0-.9233.4059-.9233.9233.001.5173.4069.9232.9233.9232z"/><path d="m91.7744 44.8578c0 .5164.4059.9233.9233.9233h4.6514c.5164 0 .9233-.4059.9233-.9233 0-.5164-.4059-.9232-.9233-.9232h-4.6514c-.5174.0009-.9233.4249-.9233.9232z"/><path d="m99.8832 45.783h2.1048c.516 0 .923-.4059.923-.9232 0-.5164-.406-.9233-.923-.9233h-2.1048c-.5164 0-.9232.4059-.9232.9233 0 .5173.4068.9232.9232.9232z"/><path d="m85.1502 31.2159c.2401 0 .4802-.0924.6641-.2773l3.046-3.083c.3506-.3688.3506-.9415 0-1.3103-.3688-.3507-.9414-.3507-1.3101 0l-3.046 3.083c-.3506.3688-.3506.9415 0 1.3103.1848.1849.4068.2773.646.2773z"/><path d="m89.8543 26.4535c.2401 0 .4802-.0925.6641-.2773l1.3844-1.3844c.3506-.3687.3506-.9414 0-1.3101-.3688-.3506-.9414-.3506-1.3101 0l-1.3844 1.3844c-.3506.3687-.3506.9414 0 1.3101.1848.1848.4068.2773.646.2773z"/><path d="m48.3058 38.8954c.4058.1849.8308.2583 1.2367.2583.3877 0 .7565-.0734 1.1262-.2211.7755-.2955 1.3663-.8863 1.6978-1.643.6832-1.5696-.0371-3.3975-1.5873-4.0799-.7565-.3325-1.5874-.3506-2.3629-.0552-.7756.2954-1.3844.8863-1.717 1.662-.6641 1.5496.0563 3.3775 1.6064 4.0789zm.1105-3.3421c.1296-.3135.3877-.5537.6831-.6642.3135-.1106.646-.1106.9414.0181.6279.2773.9232 1.0159.646 1.662-.1296.2954-.3688.5356-.6832.6461-.3135.1296-.646.1105-.9414-.0181-.6459-.2773-.9222-1.0159-.6459-1.6439z"/><path d="m89.3786 38.0475c.2954.7757.8861 1.3847 1.6245 1.7173.3878.1658.8118.2582 1.2367.2582.3878 0 .7566-.0734 1.1262-.2211 1.5874-.628 2.363-2.4187 1.7532-4.0064-.2954-.7757-.8861-1.3847-1.6426-1.7173-.7566-.3326-1.5874-.3507-2.363-.0371-1.5692.6089-2.3629 2.4187-1.735 4.0064zm2.4182-2.2891c.1477-.0553.2954-.0925.4611-.0925.1658 0 .3326.0372.4803.1106.2953.1296.5354.3878.6641.7014.2401.6461-.0734 1.3666-.7013 1.6249-.3135.1105-.646.1105-.9413-.0182-.2954-.1296-.5355-.3688-.646-.6833-.2773-.6652.0552-1.4037.6831-1.6429z"/><path d="m78.7628 26.8797c.3878.1659.8118.2583 1.2367.2583.3688 0 .7566-.0734 1.1072-.203.7756-.2954 1.3844-.8863 1.7169-1.662.6832-1.5696-.0181-3.3975-1.5692-4.0799-.7565-.3325-1.5874-.3507-2.3629-.0552-.7756.2954-1.3844.8863-1.717 1.662-.6822 1.5686.02 3.3965 1.5883 4.0798zm.0924-3.3411c.1296-.3135.3878-.5537.6832-.6642.1477-.0553.2954-.0925.443-.0925.1658 0 .3326.0372.4984.1106.6278.2773.9041 1.0159.6278 1.662-.1295.3135-.3877.5537-.7012.6642-.2954.1106-.6279.1106-.9233-.0181-.6088-.2773-.9042-1.0349-.6279-1.662z"/><path d="m61.0776 26.527c.3878.1658.8118.2582 1.2186.2582.3878 0 .7565-.0734 1.1262-.2211 1.5692-.628 2.3439-2.4187 1.735-4.0064-.2953-.7757-.886-1.3847-1.6426-1.7173-.7565-.3326-1.5873-.3507-2.3438-.0371-1.5874.628-2.3629 2.4187-1.7532 4.0244.3125.7577.9033 1.3666 1.6598 1.6992zm.7756-4.0245c.1477-.0553.2953-.0924.443-.0924.1658 0 .3325.0371.4802.1105.3135.1296.5355.3879.6641.7014.2582.6461-.0552 1.3847-.6831 1.6249-.3135.1105-.646.1105-.9414-.0181-.3135-.1296-.5354-.3879-.6641-.7014-.2401-.6471.0734-1.3666.7013-1.6249z"/><path d="m40.4431 51.968c-.7756.2954-1.3844.8862-1.717 1.662-.6831 1.5505.0372 3.3784 1.5874 4.0798.4059.1849.8308.2583 1.2367.2583.3687 0 .7565-.0734 1.1071-.203.7756-.2954 1.3663-.8863 1.6979-1.643.6831-1.5696-.0372-3.3974-1.5874-4.0798-.7193-.3517-1.5682-.3698-2.3247-.0743zm2.2524 3.3974c-.1296.2954-.3688.5356-.6832.6461-.3135.1106-.646.1106-.9414-.0181-.6278-.2773-.9232-1.0159-.6459-1.6429.1295-.3136.3877-.5537.6831-.6643.1477-.0552.2954-.0924.4431-.0924.1657 0 .3325.0372.4983.1105.6269.2764.9223 1.0331.646 1.6611z"/><path d="m101.32 53.408c-.756-.3326-1.5872-.3507-2.3628-.0553s-1.3844.8863-1.6979 1.662c-.6831 1.5506.0372 3.3785 1.5874 4.0799.4059.1849.8308.2582 1.2363.2582.369 0 .757-.0733 1.108-.2029.775-.2955 1.366-.8863 1.697-1.643.703-1.5877.001-3.4155-1.568-4.0989zm-.092 3.3421c-.13.2954-.369.5356-.683.6642-.314.1296-.6465.1106-.9418-.0181-.6279-.2773-.9233-1.0159-.646-1.6429.1296-.3136.3878-.5537.6831-.6643.1477-.0553.2954-.0924.4427-.0924.166 0 .333.0371.499.1105.628.2583.923 1.015.646 1.643z"/></g></svg>